HIERARCHY
ROOT Hips
{
	OFFSET -0.001795 -0.223333 0.028219
	CHANNELS 6 Xposition Yposition Zposition Zrotation Yrotation Xrotation 
	JOINT LeftUpLeg
	{
		OFFSET 0.069520 -0.091406 -0.006815
		CHANNELS 3 Zrotation Yrotation Xrotation
		JOINT LeftLeg
		{
			OFFSET 0.034277 -0.375199 -0.004496
			CHANNELS 3 Zrotation Yrotation Xrotation
			JOINT LeftFoot
			{
				OFFSET -0.013596 -0.397961 -0.043693
				CHANNELS 3 Zrotation Yrotation Xrotation
				JOINT LeftToe
				{
					OFFSET 0.026358 -0.055791 0.119288
					CHANNELS 3 Zrotation Yrotation Xrotation
					End Site
					{
						OFFSET 0.000000 0.000000 0.000000
					}
				}
			}
		}
	}
	JOINT RightUpLeg
	{
		OFFSET -0.067670 -0.090522 -0.004320
		CHANNELS 3 Zrotation Yrotation Xrotation
		JOINT RightLeg
		{
			OFFSET -0.038290 -0.382569 -0.008850
			CHANNELS 3 Zrotation Yrotation Xrotation
			JOINT RightFoot
			{
				OFFSET 0.015774 -0.398415 -0.042312
				CHANNELS 3 Zrotation Yrotation Xrotation
				JOINT RightToe
				{
					OFFSET -0.025372 -0.048144 0.123348
					CHANNELS 3 Zrotation Yrotation Xrotation
					End Site
					{
						OFFSET 0.000000 0.000000 0.000000
					}
				}
			}
		}
	}
	JOINT Spine
	{
		OFFSET -0.002533 0.108963 -0.026696
		CHANNELS 3 Zrotation Yrotation Xrotation
		JOINT Spine1
		{
			OFFSET 0.005487 0.135180 0.001092
			CHANNELS 3 Zrotation Yrotation Xrotation
			JOINT Spine2
			{
				OFFSET 0.001457 0.052922 0.025425
				CHANNELS 3 Zrotation Yrotation Xrotation
				JOINT Neck
				{
					OFFSET -0.002778 0.213870 -0.042857
					CHANNELS 3 Zrotation Yrotation Xrotation
					JOINT Head
					{
						OFFSET 0.005152 0.064970 0.051349
						CHANNELS 3 Zrotation Yrotation Xrotation
						End Site
						{
							OFFSET 0.000000 0.000000 0.000000
						}
					}
				}
				JOINT LeftShoulder
				{
					OFFSET 0.078845 0.121749 -0.034090
					CHANNELS 3 Zrotation Yrotation Xrotation
					JOINT LeftArm
					{
						OFFSET 0.090977 0.030469 -0.008868
						CHANNELS 3 Zrotation Yrotation Xrotation
						JOINT LeftForeArm
						{
							OFFSET 0.259612 -0.012772 -0.027456
							CHANNELS 3 Zrotation Yrotation Xrotation
							JOINT LeftHand
							{
								OFFSET 0.249234 0.008986 -0.001171
								CHANNELS 3 Zrotation Yrotation Xrotation
								End Site
								{
									OFFSET 0.000000 0.000000 0.000000
								}
							}
						}
					}
				}
				JOINT RightShoulder
				{
					OFFSET -0.081759 0.118833 -0.038615
					CHANNELS 3 Zrotation Yrotation Xrotation
					JOINT RightArm
					{
						OFFSET -0.096012 0.032551 -0.009143
						CHANNELS 3 Zrotation Yrotation Xrotation
						JOINT RightForeArm
						{
							OFFSET -0.253742 -0.013329 -0.021401
							CHANNELS 3 Zrotation Yrotation Xrotation
							JOINT RightHand
							{
								OFFSET -0.255298 0.007772 -0.005559
								CHANNELS 3 Zrotation Yrotation Xrotation
								End Site
								{
									OFFSET 0.000000 0.000000 0.000000
								}
							}
						}
					}
				}
			}
		}
	}
}
MOTION
Frames: 18
Frame Time: 0.050000
0.000000 0.942009 0.000000 0.152459 1.450659 16.512031 6.943236 -1.043236 -21.156360 -1.907850 0.110890 4.561473 4.130279 11.093619 9.656932 0.000000 0.000000 0.000000 -4.942946 1.615791 -24.531772 0.097426 0.315425 8.930304 -2.501100 -8.317015 6.351957 0.000000 0.000000 0.000000 4.515504 -1.083186 9.322566 -0.357553 0.132525 0.737217 -3.668896 0.188055 3.528020 5.377911 -1.069187 -22.195567 0.000000 0.000000 0.000000 -20.134187 -30.033120 15.110923 -31.179857 -48.790649 8.533175 26.322400 -20.353629 -3.727970 0.000000 0.000000 0.000000 16.941292 25.594312 12.920636 34.433900 51.413685 11.071900 -23.155753 20.838542 -2.877580 0.000000 0.000000 0.000000 
-0.000197 0.941912 0.001792 -0.100159 1.155617 17.121667 7.287540 -0.997648 -21.381920 -1.343881 0.044375 4.080788 3.351173 9.804142 9.970801 0.000000 0.000000 0.000000 -4.942983 1.637007 -24.387013 0.780962 0.152919 7.484479 -2.805067 -9.274556 7.481141 0.000000 0.000000 0.000000 4.745246 -1.074717 8.682626 0.146924 -0.037818 -1.078245 -4.437485 0.540507 4.629594 6.513347 -1.543296 -22.908472 0.000000 0.000000 0.000000 -22.570435 -28.565441 14.654982 -31.080436 -49.384625 8.606532 25.631183 -20.133641 -3.546380 0.000000 0.000000 0.000000 17.140473 25.086512 12.799274 34.634993 54.030541 11.995195 -21.432522 20.215129 -2.494617 0.000000 0.000000 0.000000 
-0.000392 0.941708 0.003492 -0.219545 1.424136 16.462909 7.461367 -0.965649 -20.888333 -1.748848 0.087436 4.646032 3.698209 10.340105 9.600826 0.000000 0.000000 0.000000 -4.734098 1.627981 -23.957177 0.284652 0.254792 8.111109 -2.678932 -9.168220 8.328894 0.000000 0.000000 0.000000 5.427557 -1.191804 8.934545 -1.102474 0.515818 -1.510741 -4.846969 0.643759 4.907950 6.645810 -1.967434 -20.183212 0.000000 0.000000 0.000000 -21.682100 -28.304813 14.193264 -32.465700 -50.491746 9.477745 23.809568 -18.908480 -3.035232 0.000000 0.000000 0.000000 17.020374 24.768291 12.674855 34.456640 54.502610 12.051821 -19.829963 20.401428 -2.277692 0.000000 0.000000 0.000000 
-0.000446 0.941224 0.005070 -0.133594 2.418931 16.523868 7.377888 -1.039485 -21.386048 -1.503873 0.036485 5.050345 3.363737 9.841103 9.448410 0.000000 0.000000 0.000000 -4.809165 1.551109 -23.692917 0.274656 0.241699 7.981755 -3.115528 -9.834232 7.679848 0.000000 0.000000 0.000000 5.775671 -1.136522 7.732940 -1.382318 0.629412 -1.113739 -5.110213 0.544656 4.691002 6.886763 -1.922500 -21.012791 0.000000 0.000000 0.000000 -22.523614 -28.768648 14.463729 -33.371675 -49.850228 9.711947 22.750667 -19.916709 -3.056336 0.000000 0.000000 0.000000 16.240496 24.067228 12.210372 34.914315 55.535748 12.727683 -18.936314 20.429678 -2.147512 0.000000 0.000000 0.000000 
-0.000328 0.941199 0.006942 0.048271 2.520896 15.752347 7.239697 -1.027780 -20.653199 -1.941386 0.089124 5.536070 3.481365 9.889975 8.776316 0.000000 0.000000 0.000000 -4.740561 1.495745 -22.611707 -0.097940 0.300106 7.819367 -2.850823 -9.284885 7.835941 0.000000 0.000000 0.000000 5.374678 -1.028284 7.333073 -1.272162 0.583952 -1.153725 -5.290123 0.822143 5.394518 7.214569 -2.099279 -20.924847 0.000000 0.000000 0.000000 -24.010948 -28.877664 14.684555 -33.376253 -48.541630 9.281533 21.909509 -21.693226 -3.213228 0.000000 0.000000 0.000000 16.000798 23.703261 12.039474 35.701530 55.504301 13.061634 -19.423664 21.886197 -2.407353 0.000000 0.000000 0.000000 
-0.000042 0.941296 0.008502 0.078805 2.823751 15.721311 7.187940 -1.056375 -20.943874 -2.207057 0.109832 6.442630 3.422620 9.728643 8.404173 0.000000 0.000000 0.000000 -4.667998 1.478704 -22.366853 -0.161758 0.304341 7.697987 -2.739965 -8.958694 7.566634 0.000000 0.000000 0.000000 5.313727 -0.932047 6.389746 -1.282027 0.584811 -0.976898 -5.266624 0.782802 5.379046 6.902345 -1.891577 -21.128131 0.000000 0.000000 0.000000 -24.108896 -28.602251 14.456326 -34.381562 -47.518562 9.354395 21.348567 -24.053500 -3.488687 0.000000 0.000000 0.000000 16.450997 23.940469 12.281490 34.632519 55.568832 12.560493 -19.267467 23.676270 -2.619042 0.000000 0.000000 0.000000 
0.000467 0.941083 0.009973 0.030922 2.818179 14.868375 7.192250 -1.017637 -20.240867 -2.333042 0.120258 7.017577 3.531294 9.839097 8.114017 0.000000 0.000000 0.000000 -4.792726 1.421154 -21.728764 0.044019 0.284245 8.170652 -2.722174 -8.902408 7.512782 0.000000 0.000000 0.000000 5.182323 -0.864780 6.032519 -1.236434 0.563734 -0.797724 -5.337632 0.929350 5.305553 7.585810 -2.224814 -21.270274 0.000000 0.000000 0.000000 -24.349295 -28.108611 14.069689 -35.121094 -46.480703 9.314098 21.642936 -26.522772 -3.971241 0.000000 0.000000 0.000000 16.562690 23.432204 12.035200 35.473398 55.899424 13.111034 -20.669241 25.403998 -3.116324 0.000000 0.000000 0.000000 
0.001143 0.941141 0.011340 -0.116577 2.676215 14.079912 7.080127 -0.986992 -19.512560 -2.443426 0.129098 7.708400 3.665267 9.845197 7.249179 0.000000 0.000000 0.000000 -4.862791 1.370553 -20.902504 0.276676 0.250496 8.375195 -2.479278 -8.313747 7.163247 0.000000 0.000000 0.000000 5.111460 -0.795168 5.533940 -1.133327 0.517880 -0.666403 -5.377194 0.932873 5.433110 7.683551 -2.404923 -20.570874 0.000000 0.000000 0.000000 -23.240774 -27.515505 13.471929 -35.410587 -45.678491 9.122623 22.222046 -29.566409 -4.636927 0.000000 0.000000 0.000000 15.950814 22.983641 11.613617 36.475543 56.455634 13.838344 -23.023448 27.702490 -3.964986 0.000000 0.000000 0.000000 
0.001765 0.941155 0.012836 -0.369965 2.387498 13.494914 7.223868 -0.917440 -18.596431 -2.571085 0.156004 7.652123 3.814464 10.012804 6.977864 0.000000 0.000000 0.000000 -4.607741 1.376582 -20.226935 0.205808 0.264958 8.314179 -2.422582 -8.252198 7.304027 0.000000 0.000000 0.000000 5.076014 -0.728680 4.972189 -0.945894 0.428730 -0.343382 -5.353990 1.161151 5.156314 7.884048 -2.651208 -19.649153 0.000000 0.000000 0.000000 -22.407018 -26.859305 12.836600 -35.655677 -44.786807 8.929281 23.254170 -32.239480 -5.425985 0.000000 0.000000 0.000000 15.794444 22.423941 11.267955 36.727629 56.651476 14.080253 -25.020397 29.979311 -4.830431 0.000000 0.000000 0.000000 
0.002253 0.941051 0.014283 -0.454300 2.110519 13.013935 7.287622 -0.871911 -17.974575 -2.641296 0.167281 8.030316 4.001272 10.212221 6.513749 0.000000 0.000000 0.000000 -4.501173 1.367134 -19.687126 0.090569 0.289540 8.335710 -2.253174 -7.893049 7.214083 0.000000 0.000000 0.000000 4.996954 -0.668265 4.497968 -0.874656 0.404938 -0.590255 -5.322329 1.327642 5.424806 8.477807 -3.080297 -19.159174 0.000000 0.000000 0.000000 -21.042289 -26.292108 12.241874 -35.364072 -44.087905 8.558756 23.832238 -35.362182 -6.208980 0.000000 0.000000 0.000000 15.055985 21.710429 10.727728 37.974374 56.990477 14.862892 -27.463268 32.626689 -5.976363 0.000000 0.000000 0.000000 
0.002693 0.940925 0.015351 -0.634182 2.082060 12.623498 7.366094 -0.840002 -17.474051 -2.631354 0.164231 8.188696 4.145070 10.379716 6.146115 0.000000 0.000000 0.000000 -4.289774 1.358451 -19.106385 -0.167313 0.328087 8.109541 -2.133218 -7.631030 7.187380 0.000000 0.000000 0.000000 4.908384 -0.605396 3.960603 -0.640910 0.304372 -0.731300 -5.453946 1.406619 5.477669 8.846959 -3.325166 -18.939920 0.000000 0.000000 0.000000 -19.941194 -25.808827 11.732531 -35.107113 -43.143093 8.156393 24.279157 -38.009864 -6.909602 0.000000 0.000000 0.000000 15.170231 21.052598 10.401615 38.675506 56.962709 15.218508 -29.030204 34.669775 -6.858964 0.000000 0.000000 0.000000 
0.003245 0.940818 0.015831 -0.757194 2.182703 12.426777 7.485532 -0.826710 -17.441441 -2.736406 0.174152 8.743667 4.192779 10.386201 5.773257 0.000000 0.000000 0.000000 -4.246750 1.346910 -18.895312 -0.252026 0.337888 7.991845 -2.041925 -7.482702 7.409278 0.000000 0.000000 0.000000 4.959152 -0.566849 3.501967 -0.561135 0.261905 -0.479829 -5.607129 1.293972 5.091750 9.192228 -3.766785 -17.522962 0.000000 0.000000 0.000000 -18.889837 -25.267356 11.241706 -34.425032 -42.466245 7.749550 24.775811 -40.915011 -7.712409 0.000000 0.000000 0.000000 14.804502 20.634837 10.092397 39.875521 56.849224 15.846043 -30.200756 36.144007 -7.565442 0.000000 0.000000 0.000000 
0.003988 0.940584 0.015941 -0.813006 2.225083 12.228462 7.429552 -0.832831 -17.520232 -2.873126 0.190894 9.336860 4.371871 10.651370 5.485699 0.000000 0.000000 0.000000 -4.311565 1.331184 -18.816742 -0.266667 0.348057 8.205918 -1.860921 -7.099653 7.437185 0.000000 0.000000 0.000000 4.831016 -0.524765 3.184449 -0.309651 0.154316 -0.679541 -5.712657 1.570080 5.024560 9.485246 -4.068545 -16.663591 0.000000 0.000000 0.000000 -18.449855 -25.298933 11.083433 -33.633907 -41.797572 7.319322 25.477492 -43.596206 -8.621878 0.000000 0.000000 0.000000 14.883525 19.985246 9.832795 40.026715 56.608132 15.845782 -30.411635 37.613422 -7.962971 0.000000 0.000000 0.000000 
0.004868 0.940498 0.015995 -0.968954 2.119224 11.852110 7.422290 -0.818441 -17.377965 -2.784544 0.171873 9.726796 4.402329 10.690184 5.451462 0.000000 0.000000 0.000000 -4.229087 1.324993 -18.529221 -0.312555 0.362002 8.324732 -1.827383 -7.087410 7.621865 0.000000 0.000000 0.000000 4.927204 -0.501095 2.901355 -0.133743 0.069272 -0.487930 -5.865590 1.762498 4.717110 9.491561 -4.296087 -15.366223 0.000000 0.000000 0.000000 -18.036548 -24.949762 10.752301 -33.275484 -41.249251 7.078871 25.942715 -46.128178 -9.445042 0.000000 0.000000 0.000000 15.035583 19.856727 9.820963 40.043960 56.318382 15.759920 -29.920918 38.338818 -7.979515 0.000000 0.000000 0.000000 
0.005743 0.940358 0.016163 -0.902147 1.985676 11.680173 7.341828 -0.815462 -17.248215 -2.851186 0.186302 9.796811 4.382058 10.646641 5.462010 0.000000 0.000000 0.000000 -4.550551 1.279943 -18.333687 -0.160316 0.335653 8.312997 -1.823658 -7.095989 7.643954 0.000000 0.000000 0.000000 4.825800 -0.474215 2.717636 -0.184651 0.080700 -0.096030 -5.860902 1.872361 4.446417 9.575503 -4.533785 -14.355508 0.000000 0.000000 0.000000 -18.257658 -24.892749 10.718712 -32.672816 -40.781807 6.799509 27.556210 -48.435577 -10.755424 0.000000 0.000000 0.000000 15.143114 19.787228 9.803834 39.599979 55.970446 15.406532 -29.514775 38.904118 -7.992069 0.000000 0.000000 0.000000 
0.006430 0.940283 0.016338 -1.015128 1.837428 11.449944 7.470660 -0.786143 -17.041128 -2.876951 0.193943 9.829712 4.354267 10.609928 5.581144 0.000000 0.000000 0.000000 -4.571590 1.271529 -18.179288 -0.116353 0.343529 8.700354 -1.843995 -7.118704 7.515081 0.000000 0.000000 0.000000 4.860612 -0.447113 2.423994 -0.212136 0.091547 -0.012348 -5.922045 2.004651 4.491587 9.534411 -4.758443 -13.103016 0.000000 0.000000 0.000000 -18.319894 -24.883024 10.694495 -32.435055 -40.285232 6.594683 29.562924 -50.460234 -12.276290 0.000000 0.000000 0.000000 15.404659 19.698595 9.810926 39.583780 55.384412 15.135104 -29.415565 39.581272 -8.119676 0.000000 0.000000 0.000000 
0.006897 0.940176 0.016358 -1.166036 1.781830 11.257486 7.668191 -0.752141 -16.751110 -2.930565 0.206261 9.755042 4.451737 10.762894 5.498292 0.000000 0.000000 0.000000 -4.648047 1.264316 -18.204684 0.160280 0.309796 9.172038 -1.901705 -7.267171 7.590788 0.000000 0.000000 0.000000 4.903112 -0.419009 2.098106 -0.136226 0.044604 0.387875 -6.047859 2.092958 4.343648 9.507508 -4.905217 -12.249709 0.000000 0.000000 0.000000 -18.128240 -24.893095 10.634729 -32.376844 -40.189113 6.565181 31.728867 -51.720948 -13.761222 0.000000 0.000000 0.000000 15.693644 19.783659 9.922358 39.376758 54.917903 14.837876 -29.682486 40.273185 -8.379327 0.000000 0.000000 0.000000 
0.007225 0.940145 0.016149 -1.288873 1.801233 11.035847 7.983091 -0.712730 -16.573313 -3.127549 0.241745 9.952422 4.451204 10.703316 5.242401 0.000000 0.000000 0.000000 -4.555209 1.267549 -18.116465 0.382227 0.277558 9.465214 -2.079509 -7.579497 7.353654 0.000000 0.000000 0.000000 4.901090 -0.402512 1.947675 -0.034630 -0.006463 0.506271 -6.236949 2.216019 4.417125 9.579729 -5.159988 -11.215152 0.000000 0.000000 0.000000 -18.124637 -25.111971 10.702391 -31.825504 -40.196498 6.414368 33.855764 -52.298880 -15.069560 0.000000 0.000000 0.000000 16.170701 19.699032 10.003419 38.868025 54.536324 14.408448 -29.445904 40.804534 -8.409478 0.000000 0.000000 0.000000 
